<svg width="56" height="56" viewBox="0 0 56 56" fill="none" xmlns="http://www.w3.org/2000/svg">
<g clip-path="url(#clip0_27_105)">
<path d="M43.9483 0.699951H12.0517C8.85537 0.699951 5.78998 1.96968 3.52985 4.2298C1.26973 6.48993 0 9.55532 0 12.7516L0 43.2483C0 46.4446 1.26973 49.51 3.52985 51.7701C5.78998 54.0302 8.85537 55.3 12.0517 55.3H43.9483C47.1446 55.3 50.21 54.0302 52.4701 51.7701C54.7303 49.51 56 46.4446 56 43.2483V12.7516C56 9.55532 54.7303 6.48993 52.4701 4.2298C50.21 1.96968 47.1446 0.699951 43.9483 0.699951ZM29.701 39.179H24.3647C23.9913 39.179 23.7253 39.165 23.576 38.9153C23.0743 37.9376 22.5727 36.9669 22.0733 36.0033C21.557 35.0118 21.025 34.0285 20.4773 33.054C19.9084 32.0452 19.3507 31.0301 18.8043 30.0089H18.767C18.2613 31.0178 17.7417 32.0197 17.2083 33.0143C16.6717 34.0153 16.1373 35.0116 15.6123 36.0009C15.0878 36.9911 14.5503 37.9743 14 38.9503C13.8973 39.1766 13.7223 39.2 13.4703 39.2H8.32533C8.225 39.2 8.169 39.2396 8.15733 39.1393C8.14383 39.0475 8.1637 38.954 8.21333 38.8756L15.463 26.9639L8.4 15.022C8.323 14.9216 8.31133 14.8399 8.36267 14.7723C8.39028 14.7399 8.42521 14.7145 8.46457 14.6983C8.50392 14.6821 8.54657 14.6754 8.589 14.679H13.8857C14.0011 14.6742 14.1163 14.6932 14.224 14.735C14.3134 14.7863 14.39 14.8573 14.448 14.9426C14.8983 15.9459 15.4 16.947 15.9507 17.948C16.5013 18.9489 17.059 19.9383 17.6213 20.9159C18.1837 21.8936 18.704 22.8829 19.18 23.8839H19.2173C19.7143 22.8573 20.2207 21.8563 20.7387 20.8786C21.2567 19.9009 21.7817 18.9186 22.316 17.9293C22.855 16.9376 23.373 15.953 23.8747 14.9799C23.9025 14.8861 23.9539 14.801 24.024 14.7326C24.1171 14.6862 24.2214 14.6668 24.325 14.6766H29.246C29.3014 14.6631 29.3598 14.672 29.4087 14.7012C29.4576 14.7305 29.493 14.7778 29.5073 14.8329C29.5171 14.8726 29.5156 14.9142 29.5028 14.953C29.49 14.9918 29.4665 15.0262 29.435 15.0523L29.4373 15.0616L22.449 26.5953L29.925 38.8429C29.974 38.9293 29.9857 39.0296 29.9623 39.1253C29.939 39.2093 29.8527 39.1533 29.701 39.179ZM47.6233 38.199C46.4021 38.7077 45.1303 39.0855 43.8293 39.326C42.6387 39.547 41.4306 39.6603 40.2197 39.6643C38.4911 39.6897 36.7785 39.331 35.2053 38.6143C33.7397 37.9356 32.5144 36.8283 31.6913 35.4386C30.7868 33.8172 30.3445 31.9787 30.4127 30.1233C30.3988 28.3991 30.8398 26.7016 31.6913 25.2023C32.5686 23.6749 33.8584 22.4255 35.413 21.5973C37.3775 20.5707 39.5881 20.1087 41.7993 20.2626C42 20.2743 42.238 20.2929 42.5133 20.3186V12.9173C42.5133 12.7423 42.588 12.6536 42.7397 12.6536H47.4717C47.5243 12.6463 47.5776 12.6601 47.62 12.692C47.6624 12.724 47.6905 12.7714 47.698 12.8239C47.7003 12.8425 47.7003 12.8614 47.698 12.88V35.0863C47.698 35.5133 47.7167 35.9753 47.754 36.477C47.7913 36.9763 47.824 37.4266 47.8473 37.8279C47.8522 37.9052 47.8334 37.9822 47.7933 38.0485C47.7533 38.1148 47.694 38.1673 47.6233 38.199ZM41.8903 24.6376C42.1003 24.6586 42.308 24.696 42.511 24.7496V35.0046C42.242 35.0846 41.965 35.1347 41.685 35.1539C41.3598 35.1802 41.0336 35.1926 40.7073 35.1913C40.0499 35.1943 39.3962 35.0927 38.7707 34.8903C38.1793 34.7041 37.6393 34.383 37.1933 33.9523C36.7281 33.4835 36.3692 32.9201 36.141 32.3003C35.8614 31.5298 35.7277 30.714 35.7467 29.8946C35.6975 28.8502 35.966 27.8154 36.5167 26.9266C37.0137 26.1893 37.6927 25.5943 38.4883 25.1976C39.305 24.7939 40.2057 24.5863 41.118 24.5956C41.377 24.6003 41.6337 24.6119 41.8903 24.6376Z" fill="#141414"/>
</g>
<defs>
<clipPath id="clip0_27_105">
<rect width="56" height="56" fill="white"/>
</clipPath>
</defs>
</svg>
