<svg width="57" height="56" viewBox="0 0 57 56" fill="none" xmlns="http://www.w3.org/2000/svg">
<path d="M54.9448 25.5063L30.5006 1.05585C29.8239 0.379768 28.9065 0 27.9499 0C26.9934 0 26.076 0.379768 25.3993 1.05585L20.3167 6.13469L26.7568 12.5748C30.1394 11.4323 33.3419 14.6711 32.1806 18.0349L38.3882 24.2425C42.6671 22.7675 46.0359 28.1176 42.8221 31.3289C39.5108 34.6402 34.0457 30.9701 35.822 26.6613L30.0281 20.8749V36.1064C33.1907 37.674 32.8107 41.3378 31.1631 42.9816C30.3582 43.786 29.2667 44.2379 28.1287 44.2379C26.9907 44.2379 25.8992 43.786 25.0943 42.9816C22.898 40.7815 23.7105 37.1177 26.5005 35.9814V20.6062C23.9005 19.5424 23.4255 16.7636 24.1705 14.9811L17.8217 8.62473L1.05637 25.3925C0.379979 26.069 0 26.9865 0 27.9432C0 28.8998 0.379979 29.8173 1.05637 30.4939L25.508 54.9443C26.1845 55.6203 27.1017 56 28.0581 56C29.0144 56 29.9316 55.6203 30.6081 54.9443L54.9448 30.6076C55.6212 29.9311 56.0011 29.0136 56.0011 28.0569C56.0011 27.1003 55.6212 26.1828 54.9448 25.5063Z" fill="black"/>
</svg>
