<svg width="56" height="56" viewBox="0 0 56 56" fill="none" xmlns="http://www.w3.org/2000/svg">
<path d="M19.0203 43.4656C19.0203 43.6844 18.7687 43.8594 18.4516 43.8594C18.0906 43.8922 17.8391 43.7172 17.8391 43.4656C17.8391 43.2469 18.0906 43.0719 18.4078 43.0719C18.7359 43.0391 19.0203 43.2141 19.0203 43.4656ZM15.6188 42.9734C15.5422 43.1922 15.7609 43.4437 16.0891 43.5094C16.3734 43.6187 16.7016 43.5094 16.7672 43.2906C16.8328 43.0719 16.625 42.8203 16.2969 42.7219C16.0125 42.6453 15.6953 42.7547 15.6188 42.9734ZM20.4531 42.7875C20.1359 42.8641 19.9172 43.0719 19.95 43.3234C19.9828 43.5422 20.2672 43.6844 20.5953 43.6078C20.9125 43.5312 21.1312 43.3234 21.0984 43.1047C21.0656 42.8969 20.7703 42.7547 20.4531 42.7875ZM27.65 0.875C12.4797 0.875 0.875 12.3922 0.875 27.5625C0.875 39.6922 8.50938 50.0719 19.4141 53.725C20.8141 53.9766 21.3062 53.1125 21.3062 52.4016C21.3062 51.7234 21.2734 47.9828 21.2734 45.6859C21.2734 45.6859 13.6172 47.3266 12.0094 42.4266C12.0094 42.4266 10.7625 39.2437 8.96875 38.4234C8.96875 38.4234 6.46406 36.7062 9.14375 36.7391C9.14375 36.7391 11.8672 36.9578 13.3656 39.5609C15.7609 43.7828 19.775 42.5688 21.3391 41.8469C21.5906 40.0969 22.3016 38.8828 23.0891 38.1609C16.975 37.4828 10.8063 36.5969 10.8063 26.075C10.8063 23.0672 11.6375 21.5578 13.3875 19.6328C13.1031 18.9219 12.1734 15.9906 13.6719 12.2063C15.9578 11.4953 21.2188 15.1594 21.2188 15.1594C23.4062 14.5469 25.7578 14.2297 28.0875 14.2297C30.4172 14.2297 32.7688 14.5469 34.9562 15.1594C34.9562 15.1594 40.2172 11.4844 42.5031 12.2063C44.0016 16.0016 43.0719 18.9219 42.7875 19.6328C44.5375 21.5688 45.6094 23.0781 45.6094 26.075C45.6094 36.6297 39.1672 37.4719 33.0531 38.1609C34.0594 39.025 34.9125 40.6656 34.9125 43.2359C34.9125 46.9219 34.8797 51.4828 34.8797 52.3797C34.8797 53.0906 35.3828 53.9547 36.7719 53.7031C47.7094 50.0719 55.125 39.6922 55.125 27.5625C55.125 12.3922 42.8203 0.875 27.65 0.875ZM11.5062 38.5984C11.3641 38.7078 11.3969 38.9594 11.5828 39.1672C11.7578 39.3422 12.0094 39.4188 12.1516 39.2766C12.2937 39.1672 12.2609 38.9156 12.075 38.7078C11.9 38.5328 11.6484 38.4562 11.5062 38.5984ZM10.325 37.7125C10.2484 37.8547 10.3578 38.0297 10.5766 38.1391C10.7516 38.2484 10.9703 38.2156 11.0469 38.0625C11.1234 37.9203 11.0141 37.7453 10.7953 37.6359C10.5766 37.5703 10.4016 37.6031 10.325 37.7125ZM13.8688 41.6063C13.6938 41.7484 13.7594 42.0766 14.0109 42.2844C14.2625 42.5359 14.5797 42.5688 14.7219 42.3937C14.8641 42.2516 14.7984 41.9234 14.5797 41.7156C14.3391 41.4641 14.0109 41.4312 13.8688 41.6063ZM12.6219 39.9984C12.4469 40.1078 12.4469 40.3922 12.6219 40.6437C12.7969 40.8953 13.0922 41.0047 13.2344 40.8953C13.4094 40.7531 13.4094 40.4688 13.2344 40.2172C13.0813 39.9656 12.7969 39.8563 12.6219 39.9984Z" fill="black"/>
</svg>
