<svg width="18" height="17" viewBox="0 0 18 17" fill="none" xmlns="http://www.w3.org/2000/svg">
<path d="M8.50379 4.14148C6.09121 4.14148 4.14521 6.08748 4.14521 8.50006C4.14521 10.9126 6.09121 12.8586 8.50379 12.8586C10.9164 12.8586 12.8624 10.9126 12.8624 8.50006C12.8624 6.08748 10.9164 4.14148 8.50379 4.14148ZM8.50379 11.3337C6.94472 11.3337 5.67014 10.0629 5.67014 8.50006C5.67014 6.93719 6.94092 5.66641 8.50379 5.66641C10.0667 5.66641 11.3374 6.93719 11.3374 8.50006C11.3374 10.0629 10.0629 11.3337 8.50379 11.3337ZM14.0573 3.96319C14.0573 4.5284 13.6021 4.97981 13.0407 4.97981C12.4755 4.97981 12.024 4.52461 12.024 3.96319C12.024 3.40177 12.4792 2.94656 13.0407 2.94656C13.6021 2.94656 14.0573 3.40177 14.0573 3.96319ZM16.944 4.99499C16.8796 3.63316 16.5685 2.42687 15.5708 1.43301C14.577 0.439144 13.3707 0.128087 12.0089 0.0598067C10.6053 -0.0198542 6.39847 -0.0198542 4.99492 0.0598067C3.6369 0.124294 2.4306 0.435351 1.43295 1.42921C0.43529 2.42308 0.128026 3.62937 0.0597456 4.99119C-0.0199152 6.39474 -0.0199152 10.6016 0.0597456 12.0051C0.124233 13.367 0.43529 14.5733 1.43295 15.5671C2.4306 16.561 3.6331 16.872 4.99492 16.9403C6.39847 17.02 10.6053 17.02 12.0089 16.9403C13.3707 16.8758 14.577 16.5648 15.5708 15.5671C16.5647 14.5733 16.8758 13.367 16.944 12.0051C17.0237 10.6016 17.0237 6.39853 16.944 4.99499ZM15.1308 13.5111C14.8349 14.2546 14.2621 14.8274 13.5148 15.1271C12.3958 15.5709 9.74043 15.4685 8.50379 15.4685C7.26715 15.4685 4.608 15.5671 3.49275 15.1271C2.74925 14.8312 2.17645 14.2584 1.87677 13.5111C1.43295 12.3921 1.53537 9.7367 1.53537 8.50006C1.53537 7.26342 1.43674 4.60427 1.87677 3.48902C2.17265 2.74551 2.74545 2.17272 3.49275 1.87304C4.61179 1.42921 7.26715 1.53164 8.50379 1.53164C9.74043 1.53164 12.3996 1.43301 13.5148 1.87304C14.2583 2.16892 14.8311 2.74172 15.1308 3.48902C15.5746 4.60806 15.4722 7.26342 15.4722 8.50006C15.4722 9.7367 15.5746 12.3959 15.1308 13.5111Z" fill="black"/>
</svg>
