<svg width="56" height="56" viewBox="0 0 56 56" fill="none" xmlns="http://www.w3.org/2000/svg">
<g clip-path="url(#clip0_27_108)">
<path d="M39.9683 0C37.7905 0.0165706 35.6254 0.332187 33.5335 0.938L33.3883 0.98525C32.0722 0.757231 30.7407 0.629116 29.4053 0.602C26.6525 0.55475 24.29 1.21975 22.386 2.33275C20.5083 1.687 16.6163 0.55475 12.5143 0.784C9.66352 0.938 6.54501 1.80425 4.22801 4.24725C1.93201 6.6815 0.712265 10.4545 0.966015 15.596C1.03777 17.0082 1.44026 19.313 2.11401 22.3107C2.77901 25.3015 3.71877 28.8015 4.89477 32.0005C6.07077 35.1908 7.35351 38.0608 9.36076 40.0103C10.3618 40.985 11.7478 41.8162 13.3788 41.7445C14.5198 41.6973 15.5488 41.1968 16.443 40.4582C16.8788 41.0322 17.346 41.2773 17.7643 41.5065C18.3033 41.7988 18.8125 41.9982 19.3515 42.1278C20.3175 42.3727 21.9678 42.693 23.8998 42.364C24.6033 42.2374 25.289 42.0265 25.942 41.7358L26.0243 44.023C26.124 46.438 26.1905 48.671 26.908 50.631C27.027 50.9512 27.3473 52.591 28.6038 54.0488C29.8708 55.5065 32.3295 56.4095 35.147 55.8075C37.1263 55.3875 39.6498 54.6228 41.328 52.2358C42.987 49.8838 43.7343 46.5028 43.8813 41.0148C43.9163 40.7137 43.9635 40.4688 44.0073 40.2308L44.3993 40.2675H44.4465C46.5605 40.3585 48.8583 40.0575 50.7815 39.1632C52.4755 38.3792 53.7618 37.5865 54.6998 36.1742C54.929 35.826 55.1915 35.399 55.258 34.6693C55.3298 33.95 54.9098 32.809 54.2168 32.2822C52.8325 31.2253 51.9575 31.626 51.0178 31.8273C50.0974 32.0255 49.1606 32.138 48.2195 32.1632C50.9163 27.6255 52.8483 22.7955 53.9525 18.5273C54.6088 16.002 54.9745 13.678 55.0008 11.6463C55.0375 9.6145 54.866 7.819 53.6515 6.2615C49.8418 1.4035 44.4903 0.0525 40.3533 0.00875H39.97L39.9683 0ZM39.858 1.49625C43.7693 1.4595 48.7708 2.55325 52.3618 7.14525C53.1738 8.176 53.4118 9.67925 53.3838 11.5395C53.3558 13.3997 53.011 15.6135 52.381 18.0477C51.17 22.771 48.8618 28.2555 45.6278 33.1888C45.739 33.2726 45.8616 33.3404 45.9918 33.39C46.6655 33.6717 48.2055 33.908 51.2855 33.2798C52.0608 33.1135 52.6278 33.0067 53.2193 33.453C53.3628 33.5741 53.4762 33.727 53.5503 33.8995C53.6244 34.0721 53.6573 34.2595 53.6463 34.447C53.6144 34.7312 53.5075 35.0018 53.3365 35.231C52.7433 36.1217 51.5708 36.9722 50.0658 37.674C48.7358 38.2917 46.8195 38.612 45.136 38.6313C44.2803 38.64 43.4963 38.5752 42.8278 38.3652L42.7928 38.3582C42.5355 40.8275 41.9458 45.7135 41.5608 47.936C41.2528 49.7298 40.7138 51.163 39.6848 52.2287C38.654 53.305 37.205 53.942 35.245 54.362C32.8213 54.8817 31.0608 54.3252 29.9233 53.368C28.7858 52.4108 28.2643 51.135 27.9545 50.3597C27.7375 49.8225 27.6273 49.1295 27.5188 48.1985C27.3996 47.0869 27.3203 45.9715 27.2808 44.8543C27.209 42.8943 27.181 40.9342 27.209 38.9655C26.1979 39.8926 24.9417 40.5097 23.59 40.7435C21.9783 41.0165 20.5468 40.7435 19.691 40.5335C19.2688 40.4258 18.8615 40.2665 18.4783 40.0592C18.0775 39.8493 17.703 39.613 17.4493 39.137C17.303 38.8644 17.2578 38.5489 17.3215 38.2463C17.3972 37.9388 17.5741 37.6657 17.8238 37.471C18.2875 37.0947 18.9 36.8882 19.8188 36.6958C21.497 36.3475 22.0885 36.113 22.4438 35.8278C22.7448 35.5915 23.093 35.0998 23.6915 34.3787C23.6915 34.3525 23.6915 34.3158 23.6828 34.2878C22.5983 34.2547 21.5368 33.9676 20.5835 33.4495C20.2388 33.8135 18.4415 35.7105 16.2645 38.3355C15.3528 39.4275 14.3413 40.0575 13.2668 40.1048C12.201 40.1485 11.2315 39.613 10.4125 38.8185C8.77276 37.2225 7.45852 34.4785 6.31927 31.3792C5.18002 28.28 4.25951 24.8273 3.59451 21.8925C2.93826 18.9473 2.54627 16.5777 2.49027 15.4385C2.24527 10.5805 3.38452 7.30975 5.33402 5.2395C7.28352 3.16925 9.95576 2.39575 12.5633 2.24175C17.2393 1.9775 21.686 3.6085 22.5803 3.955C24.311 2.779 26.544 2.051 29.3335 2.09475C30.6555 2.11419 31.9708 2.28565 33.2535 2.60575L33.3008 2.57775C33.8651 2.38229 34.44 2.2187 35.0228 2.08775C36.6066 1.71606 38.2261 1.51715 39.8528 1.4945L39.858 1.49625ZM40.2133 3.05375H39.8685C38.5385 3.0695 37.1963 3.227 35.8943 3.50875C38.801 4.795 40.9973 6.77075 42.546 8.75875C43.6223 10.1255 44.506 11.6287 45.1798 13.2335C45.4458 13.8547 45.619 14.3728 45.71 14.7735C45.7643 14.9748 45.7923 15.1462 45.8098 15.3195C45.8098 15.4105 45.8185 15.5032 45.773 15.6572C45.773 15.666 45.7643 15.6853 45.7643 15.694C45.8395 17.7362 45.3285 19.1187 45.262 21.07C45.2183 22.484 45.5823 24.143 45.6733 25.956C45.7555 27.6588 45.5473 29.5277 44.443 31.3687C44.534 31.479 44.6163 31.5875 44.7073 31.7065C47.6333 27.0935 49.7473 21.9993 50.869 17.6505C51.471 15.3073 51.7878 13.1845 51.8158 11.5098C51.8438 9.8315 51.534 8.61 51.1315 8.10075C47.9955 4.0985 43.7588 3.0765 40.2115 3.052L40.2133 3.05375ZM29.029 3.654C26.278 3.66275 24.2988 4.494 22.7973 5.74175C21.245 7.03675 20.2073 8.7955 19.5335 10.6085C18.7215 12.7505 18.4398 14.8278 18.3295 16.2418L18.3663 16.2225C19.3379 15.6784 20.3812 15.2737 21.4655 15.0203C22.6328 14.7455 23.8998 14.6632 25.0373 15.1112C26.187 15.547 27.125 16.5952 27.4715 18.172C29.1148 25.774 26.9623 28.6003 26.1695 30.7318C25.8685 31.507 25.6043 32.291 25.3943 33.0925C25.494 33.0732 25.5955 33.0452 25.6953 33.0365C26.2605 32.9928 26.6963 33.1747 26.9535 33.2832C27.7568 33.6192 28.3028 34.3122 28.6038 35.105C28.6777 35.3214 28.7321 35.5439 28.7665 35.77C28.7967 35.8645 28.8126 35.963 28.8138 36.0623C28.7219 38.969 28.7306 41.8781 28.84 44.7842C28.896 46.0425 28.9783 47.145 29.078 48.02C29.1778 48.8862 29.3143 49.5513 29.407 49.7787C29.7063 50.526 30.1438 51.5008 30.9383 52.1657C31.7223 52.8325 32.851 53.27 34.9213 52.8325C36.715 52.4405 37.8193 51.9103 38.556 51.1455C39.2963 50.3703 39.732 49.3045 40.0138 47.6735C40.4425 45.2218 41.2895 38.1115 41.391 36.7815C41.3473 35.7682 41.4908 34.9948 41.8198 34.4015C42.147 33.7995 42.658 33.4268 43.106 33.2255C43.323 33.1258 43.533 33.0628 43.7063 33.0068C43.5229 32.751 43.3345 32.499 43.141 32.2508C42.5023 31.4757 41.9772 30.6137 41.5818 29.6905C41.3999 29.3034 41.199 28.9255 40.9798 28.5583C40.6718 28.0035 40.2798 27.3 39.8685 26.5072C39.0478 24.9393 38.1553 23.0265 37.6898 21.1663C37.226 19.306 37.163 17.3845 38.3478 16.0352C39.396 14.8313 41.2458 14.3325 44.0055 14.6143C43.9233 14.3675 43.8795 14.1575 43.7413 13.839C43.1136 12.3647 42.2952 10.9791 41.307 9.71775C38.9638 6.72 35.1628 3.74675 29.3038 3.647L29.029 3.654ZM13.5363 3.773C13.2415 3.77269 12.9467 3.78203 12.6525 3.801C10.2918 3.93925 8.06751 4.62 6.47152 6.307C4.87726 8.00275 3.83077 10.7642 4.05652 15.3492C4.10377 16.2243 4.47652 18.648 5.12227 21.5373C5.77152 24.4282 6.69027 27.8285 7.79452 30.835C8.89527 33.8328 10.2288 36.449 11.5045 37.688C12.1415 38.2987 12.6963 38.5542 13.1985 38.5368C13.7008 38.5088 14.3115 38.2165 15.0588 37.324C16.4148 35.6878 17.8225 34.0951 19.2798 32.5483C18.2463 31.6486 17.4558 30.5033 16.9812 29.2179C16.5065 27.9326 16.363 26.5484 16.5638 25.193C16.8 23.471 16.8368 21.8558 16.8 20.58C16.7738 19.341 16.6898 18.522 16.6898 18.0022V17.9463L16.681 17.9305C16.681 15.2408 17.157 12.5807 18.067 10.0555C18.7233 8.3125 19.691 6.5555 21.147 5.12225C19.7173 4.648 17.1728 3.93925 14.4218 3.801C14.1276 3.78208 13.8328 3.77274 13.538 3.773H13.5363ZM42.4638 16.0947C40.88 16.1227 39.9945 16.534 39.522 17.0607C38.864 17.8185 38.801 19.1485 39.2123 20.79C39.62 22.4298 40.4705 24.262 41.2633 25.7862C41.6553 26.551 42.0385 27.2353 42.3465 27.79C42.6668 28.3552 42.8943 28.7472 43.0308 29.0938C43.1585 29.4035 43.3055 29.6765 43.4508 29.932C44.0615 28.637 44.1718 27.37 44.107 26.04C44.0248 24.4002 43.6433 22.722 43.7063 21.028C43.771 19.04 44.163 17.745 44.191 16.2138C43.6195 16.1382 43.0438 16.0984 42.4673 16.0947H42.4638ZM23.2523 16.3713C22.7693 16.3713 22.2863 16.4342 21.812 16.5445C20.8721 16.7706 19.9673 17.1232 19.1223 17.5928C18.8379 17.7466 18.5669 17.924 18.312 18.123L18.256 18.1667C18.2753 18.515 18.3383 19.334 18.3663 20.5555C18.3943 21.8855 18.3663 23.5795 18.1125 25.4135C17.5473 29.4053 20.4453 32.7057 23.8455 32.7145C24.0468 31.8938 24.3723 31.0625 24.7013 30.1892C25.648 27.636 27.5083 25.7775 25.9403 18.5045C25.6865 17.3197 25.1755 16.8368 24.472 16.5638C24.0806 16.426 23.6671 16.3613 23.2523 16.373V16.3713ZM41.727 16.8438H41.846C41.9913 16.8525 42.1383 16.863 42.2643 16.898C42.378 16.9203 42.4866 16.9636 42.5845 17.0257C42.63 17.053 42.669 17.0898 42.6989 17.1336C42.7288 17.1775 42.7489 17.2272 42.7578 17.2795V17.2987C42.7573 17.4107 42.729 17.5207 42.6755 17.619C42.6067 17.7447 42.5213 17.8606 42.4218 17.9638C42.1864 18.2268 41.8674 18.4006 41.5188 18.4555C41.1814 18.4988 40.84 18.4145 40.5615 18.2192C40.4512 18.1392 40.3502 18.0471 40.2605 17.9445C40.1818 17.8616 40.1304 17.7565 40.1135 17.6435C40.1033 17.5357 40.136 17.4281 40.2045 17.3442C40.2855 17.2614 40.3781 17.1907 40.4793 17.1343C40.705 17.0065 41.006 16.9155 41.3543 16.8682C41.4803 16.8525 41.608 16.842 41.727 16.8333V16.8438ZM23.478 17.2358C23.597 17.2358 23.7353 17.2445 23.863 17.262C24.227 17.318 24.5368 17.409 24.7818 17.5543C24.9019 17.6128 25.0076 17.697 25.0915 17.801C25.1824 17.9107 25.2281 18.0508 25.2193 18.193C25.1944 18.3277 25.1339 18.4534 25.0443 18.557C24.9483 18.6739 24.835 18.7754 24.7083 18.858C24.405 19.0759 24.0303 19.1703 23.66 19.1222C23.2849 19.0619 22.9413 18.8763 22.6853 18.5955C22.5778 18.4799 22.4854 18.3512 22.4105 18.2122C22.3288 18.0884 22.2935 17.9396 22.3108 17.7922C22.3475 17.5472 22.5575 17.409 22.7588 17.3372C22.988 17.262 23.233 17.2375 23.478 17.2463V17.2358ZM44.6163 34.37H44.6075C44.2715 34.4977 43.9898 34.545 43.7518 34.6553C43.5109 34.7461 43.3129 34.9241 43.197 35.154C43.0413 35.42 42.924 35.8942 42.959 36.7028C43.0643 36.7785 43.1822 36.8348 43.3073 36.869C43.6993 36.988 44.373 37.0703 45.1203 37.0597C46.606 37.0405 48.4383 36.6958 49.413 36.239C50.2097 35.8698 50.9493 35.3883 51.6093 34.8092C48.356 35.4743 46.5255 35.301 45.3933 34.8372C45.1151 34.7169 44.8544 34.5597 44.618 34.37H44.6163ZM25.8773 34.5887H25.83C25.704 34.5975 25.529 34.6448 25.1738 35.028C24.3618 35.938 24.08 36.512 23.415 37.0423C22.7413 37.5795 21.875 37.863 20.1338 38.2183C19.7624 38.2847 19.4008 38.3976 19.0575 38.5542C19.1205 38.6102 19.1205 38.6295 19.2203 38.6733C19.4775 38.8203 19.803 38.9393 20.069 39.011C20.8163 39.193 22.036 39.4118 23.3223 39.193C24.598 38.9743 25.928 38.3617 27.069 36.7692C27.2703 36.4963 27.286 36.085 27.1233 35.6475C26.9605 35.2205 26.6035 34.8372 26.3585 34.7375C26.2052 34.6661 26.0426 34.6167 25.8755 34.5905L25.8773 34.5887Z" fill="black"/>
</g>
<defs>
<clipPath id="clip0_27_108">
<rect width="56" height="56" fill="white"/>
</clipPath>
</defs>
</svg>
