<svg width="56" height="56" viewBox="0 0 56 56" fill="none" xmlns="http://www.w3.org/2000/svg">
<path d="M31.5631 0.230566C16.2282 -1.73646 2.19764 9.0997 0.230607 24.4369C-1.73642 39.7719 9.09741 53.8001 24.4347 55.7694C39.7719 57.7365 53.8048 46.9003 55.7671 31.5631C57.7365 16.2282 46.9027 2.19993 31.5631 0.230566ZM37.3289 17.6958C36.8093 17.7027 36.3128 17.912 35.9452 18.2792L25.5547 28.6697L24.8383 27.9533L23.338 26.453C33.5791 16.2421 35.4248 16.1441 37.3289 17.6958ZM25.9817 29.0384L36.3418 18.6782C36.4776 18.5358 36.641 18.4226 36.8221 18.3455C37.0031 18.2684 37.198 18.229 37.3948 18.2298C37.5916 18.2306 37.7861 18.2716 37.9665 18.3501C38.1469 18.4287 38.3094 18.5433 38.444 18.6868C38.5786 18.8303 38.6826 18.9998 38.7494 19.1848C38.8163 19.3699 38.8447 19.5667 38.833 19.7631C38.8212 19.9595 38.7695 20.1515 38.681 20.3272C38.5924 20.503 38.469 20.6588 38.3182 20.7852L27.3537 30.4104L25.9817 29.0384ZM26.7517 30.6577L24.185 31.2131C24.1543 31.22 24.1222 31.2163 24.0939 31.2028C24.0655 31.1893 24.0425 31.1666 24.0286 31.1384C24.013 31.1114 24.0069 31.0801 24.0111 31.0492C24.0153 31.0184 24.0297 30.9898 24.052 30.968L25.557 29.463L26.7517 30.6577ZM20.2113 29.5867L22.946 26.852L24.997 28.9007L20.3793 29.8947C20.3408 29.9047 20.3 29.9011 20.2639 29.8845C20.2278 29.8679 20.1985 29.8394 20.1809 29.8037C20.1592 29.7699 20.1503 29.7294 20.1558 29.6896C20.1614 29.6497 20.1811 29.6133 20.2113 29.5867ZM11.7038 43.7223C11.6805 43.7202 11.6578 43.7136 11.637 43.7027C11.6163 43.6918 11.5979 43.677 11.5829 43.659C11.568 43.641 11.5567 43.6202 11.5498 43.5978C11.5429 43.5754 11.5405 43.5519 11.5428 43.5286C11.5472 43.488 11.5653 43.4502 11.5941 43.4212H11.5988L13.8062 41.2139L16.6575 44.0653L11.7038 43.7223ZM17.3622 40.7915C17.2564 40.8462 17.172 40.9348 17.1225 41.0431C17.073 41.1514 17.0613 41.2731 17.0892 41.3889L17.5629 43.4072C17.5782 43.4694 17.5726 43.5349 17.547 43.5936C17.5213 43.6523 17.4771 43.7009 17.4211 43.732C17.3651 43.7631 17.3004 43.7748 17.2371 43.7655C17.1737 43.7561 17.1152 43.7262 17.0705 43.6802H17.0635L14.8842 41.5009L14.1982 40.8125L22.9763 32.0437L27.223 31.1267L29.2624 33.1661C26.334 35.7375 22.33 38.3018 17.3622 40.7915ZM29.6801 32.7927H29.6754L27.7177 30.835L38.6822 21.2099C38.7836 21.1198 38.8766 21.0206 38.9599 20.9136C38.6145 24.0519 34.2255 28.4853 29.6801 32.7927ZM38.2132 17.7192L38.2062 17.7145C37.4347 16.9394 36.9916 15.8967 36.969 14.8033C36.9464 13.71 37.3461 12.6499 38.0848 11.8435C38.8236 11.0372 39.8447 10.5465 40.9359 10.4735C42.0271 10.4006 43.1044 10.7509 43.944 11.4517L40.1872 15.2155C40.1612 15.2413 40.1405 15.272 40.1264 15.3058C40.1123 15.3397 40.1051 15.376 40.1051 15.4126C40.1051 15.4493 40.1123 15.4856 40.1264 15.5194C40.1405 15.5533 40.1612 15.584 40.1872 15.6098L43.0969 18.5195C42.3016 18.9143 41.4024 19.0494 40.5262 18.9058C39.6499 18.7623 38.8409 18.3472 38.2132 17.7192ZM44.2286 17.7192C44.0356 17.9097 43.8238 18.0802 43.5963 18.2278H43.594L40.7776 15.4115L44.3546 11.8344C45.897 13.5144 45.841 16.1091 44.2286 17.7192ZM43.9953 14.1165C43.9392 14.1571 43.8972 14.2142 43.875 14.2799C43.8528 14.3455 43.8517 14.4164 43.8716 14.4828C43.9547 14.651 43.9872 14.8398 43.9653 15.0261C43.9433 15.2125 43.8679 15.3885 43.748 15.5328C43.7212 15.5665 43.7014 15.6051 43.6896 15.6465C43.6779 15.6878 43.6744 15.7311 43.6794 15.7738C43.6843 15.8165 43.6977 15.8578 43.7187 15.8953C43.7397 15.9329 43.7679 15.9659 43.8016 15.9925C43.8577 16.0364 43.9264 16.061 43.9976 16.0625C44.0448 16.0621 44.0914 16.0514 44.1341 16.0313C44.1768 16.0111 44.2146 15.982 44.245 15.9458C44.4454 15.705 44.5713 15.4111 44.6074 15.0999C44.6434 14.7887 44.588 14.4737 44.448 14.1935C44.4235 14.1584 44.3924 14.1285 44.3563 14.1056C44.3202 14.0827 44.2799 14.0673 44.2378 14.0601C44.1956 14.0529 44.1525 14.0542 44.1109 14.0639C44.0692 14.0736 44.0299 14.0914 43.9953 14.1165Z" fill="black"/>
</svg>
