<svg width="22" height="21" viewBox="0 0 22 21" fill="none" xmlns="http://www.w3.org/2000/svg">
<rect width="22" height="21" fill="#F93333"/>
<path d="M7.14 16V5.05H10.605C11.335 5.05 11.965 5.185 12.495 5.455C13.035 5.725 13.455 6.105 13.755 6.595C14.055 7.075 14.205 7.645 14.205 8.305C14.205 9.025 14.02 9.66 13.65 10.21C13.29 10.76 12.8 11.15 12.18 11.38L14.355 16H12.255L10.35 11.65H9.015V16H7.14ZM9.015 10H10.605C11.135 10 11.55 9.855 11.85 9.565C12.15 9.275 12.3 8.875 12.3 8.365C12.3 7.845 12.15 7.44 11.85 7.15C11.55 6.85 11.135 6.7 10.605 6.7H9.015V10Z" fill="white"/>
</svg>
