<svg width="140" height="100" viewBox="0 0 140 100" fill="none" xmlns="http://www.w3.org/2000/svg">
<path d="M3.648 49V13.96H14.736C17.072 13.96 19.088 14.392 20.784 15.256C22.512 16.12 23.856 17.336 24.816 18.904C25.776 20.44 26.256 22.264 26.256 24.376C26.256 26.68 25.664 28.712 24.48 30.472C23.328 32.232 21.76 33.48 19.776 34.216L26.736 49H20.016L13.92 35.08H9.648V49H3.648ZM9.648 29.8H14.736C16.432 29.8 17.76 29.336 18.72 28.408C19.68 27.48 20.16 26.2 20.16 24.568C20.16 22.904 19.68 21.608 18.72 20.68C17.76 19.72 16.432 19.24 14.736 19.24H9.648V29.8ZM43.1813 49.48C40.9413 49.48 38.9893 49.064 37.3253 48.232C35.6933 47.368 34.4293 46.168 33.5333 44.632C32.6693 43.064 32.2373 41.224 32.2373 39.112V23.848C32.2373 21.736 32.6693 19.912 33.5333 18.376C34.4293 16.808 35.6933 15.608 37.3253 14.776C38.9893 13.912 40.9413 13.48 43.1813 13.48C45.4533 13.48 47.4053 13.912 49.0373 14.776C50.6693 15.608 51.9173 16.808 52.7812 18.376C53.6772 19.912 54.1252 21.72 54.1252 23.8V39.112C54.1252 41.224 53.6772 43.064 52.7812 44.632C51.9173 46.168 50.6693 47.368 49.0373 48.232C47.4053 49.064 45.4533 49.48 43.1813 49.48ZM43.1813 44.2C44.8133 44.2 46.0453 43.768 46.8773 42.904C47.7093 42.008 48.1253 40.744 48.1253 39.112V23.848C48.1253 22.184 47.7093 20.92 46.8773 20.056C46.0453 19.192 44.8133 18.76 43.1813 18.76C41.5493 18.76 40.3173 19.192 39.4853 20.056C38.6533 20.92 38.2373 22.184 38.2373 23.848V39.112C38.2373 40.744 38.6533 42.008 39.4853 42.904C40.3493 43.768 41.5813 44.2 43.1813 44.2Z" fill="#1E1E1E"/>
<path d="M32.376 93L30.876 93L30.876 94.5L32.376 94.5L32.376 93ZM32.376 63.528L33.876 63.528L33.876 62.028L32.376 62.028L32.376 63.528ZM23.208 63.528L21.708 63.528L21.708 65.028L23.208 65.028L23.208 63.528ZM23.208 57.96L23.208 56.46L21.708 56.46L21.708 57.96L23.208 57.96ZM47.592 57.96L49.092 57.96L49.092 56.46L47.592 56.46L47.592 57.96ZM47.592 63.528L47.592 65.028L49.092 65.028L49.092 63.528L47.592 63.528ZM38.424 63.528L38.424 62.028L36.924 62.028L36.924 63.528L38.424 63.528ZM38.424 93L38.424 94.5L39.924 94.5L39.924 93L38.424 93ZM33.876 93L33.876 63.528L30.876 63.528L30.876 93L33.876 93ZM32.376 62.028L23.208 62.028L23.208 65.028L32.376 65.028L32.376 62.028ZM24.708 63.528L24.708 57.96L21.708 57.96L21.708 63.528L24.708 63.528ZM23.208 59.46L47.592 59.46L47.592 56.46L23.208 56.46L23.208 59.46ZM46.092 57.96L46.092 63.528L49.092 63.528L49.092 57.96L46.092 57.96ZM47.592 62.028L38.424 62.028L38.424 65.028L47.592 65.028L47.592 62.028ZM36.924 63.528L36.924 93L39.924 93L39.924 63.528L36.924 63.528ZM38.424 91.5L32.376 91.5L32.376 94.5L38.424 94.5L38.424 91.5ZM54.0052 93L52.5052 93L52.5052 94.5L54.0052 94.5L54.0052 93ZM54.0052 57.96L54.0052 56.46L52.5052 56.46L52.5052 57.96L54.0052 57.96ZM75.0292 57.96L76.5292 57.96L76.5292 56.46L75.0292 56.46L75.0292 57.96ZM75.0292 63.192L75.0292 64.692L76.5292 64.692L76.5292 63.192L75.0292 63.192ZM59.9092 63.192L59.9092 61.692L58.4092 61.692L58.4092 63.192L59.9092 63.192ZM59.9092 72.312L58.4092 72.312L58.4092 73.812L59.9092 73.812L59.9092 72.312ZM73.3492 72.312L74.8492 72.312L74.8492 70.812L73.3492 70.812L73.3492 72.312ZM73.3492 77.496L73.3492 78.996L74.8492 78.996L74.8492 77.496L73.3492 77.496ZM59.9092 77.496L59.9092 75.996L58.4092 75.996L58.4092 77.496L59.9092 77.496ZM59.9092 87.768L58.4092 87.768L58.4092 89.268L59.9092 89.268L59.9092 87.768ZM75.0292 87.768L76.5292 87.768L76.5292 86.268L75.0292 86.268L75.0292 87.768ZM75.0292 93L75.0292 94.5L76.5292 94.5L76.5292 93L75.0292 93ZM55.5052 93L55.5052 57.96L52.5052 57.96L52.5052 93L55.5052 93ZM54.0052 59.46L75.0292 59.46L75.0292 56.46L54.0052 56.46L54.0052 59.46ZM73.5292 57.96L73.5292 63.192L76.5292 63.192L76.5292 57.96L73.5292 57.96ZM75.0292 61.692L59.9092 61.692L59.9092 64.692L75.0292 64.692L75.0292 61.692ZM58.4092 63.192L58.4092 72.312L61.4092 72.312L61.4092 63.192L58.4092 63.192ZM59.9092 73.812L73.3492 73.812L73.3492 70.812L59.9092 70.812L59.9092 73.812ZM71.8492 72.312L71.8492 77.496L74.8492 77.496L74.8492 72.312L71.8492 72.312ZM73.3492 75.996L59.9092 75.996L59.9092 78.996L73.3492 78.996L73.3492 75.996ZM58.4092 77.496L58.4092 87.768L61.4092 87.768L61.4092 77.496L58.4092 77.496ZM59.9092 89.268L75.0292 89.268L75.0292 86.268L59.9092 86.268L59.9092 89.268ZM73.5292 87.768L73.5292 93L76.5292 93L76.5292 87.768L73.5292 87.768ZM75.0292 91.5L54.0052 91.5L54.0052 94.5L75.0292 94.5L75.0292 91.5ZM79.9065 93L78.5867 92.2871L77.3915 94.5L79.9065 94.5L79.9065 93ZM89.6025 75.048L90.9223 75.7608L91.305 75.0522L90.9258 74.3417L89.6025 75.048ZM80.4825 57.96L80.4825 56.46L77.9816 56.46L79.1592 58.6663L80.4825 57.96ZM87.2025 57.96L88.5426 57.2862L88.1273 56.46L87.2025 56.46L87.2025 57.96ZM91.6185 66.744L92.9601 66.0732L92.9586 66.0702L91.6185 66.744ZM92.4825 68.616L91.1 69.1981L91.1058 69.2117L91.1118 69.2252L92.4825 68.616ZM93.0585 69.96L91.6658 70.5171L93.261 74.5051L94.4952 70.391L93.0585 69.96ZM93.5865 68.616L94.9572 69.2252L94.9632 69.2117L94.9689 69.1981L93.5865 68.616ZM94.4505 66.744L93.1132 66.0644L93.1088 66.0732L94.4505 66.744ZM98.9145 57.96L98.9145 56.46L97.9942 56.46L97.5772 57.2804L98.9145 57.96ZM105.442 57.96L106.763 58.6709L107.953 56.46L105.442 56.46L105.442 57.96ZM96.3225 74.904L95.0016 74.1931L94.6199 74.9024L95.0003 75.6124L96.3225 74.904ZM106.018 93L106.018 94.5L108.524 94.5L107.341 92.2916L106.018 93ZM99.2985 93L97.9622 93.6814L98.3796 94.5L99.2985 94.5L99.2985 93ZM94.3545 83.304L93.0128 83.9748L93.0182 83.9854L94.3545 83.304ZM93.4425 81.432L92.06 82.0141L92.0728 82.0444L92.0869 82.0741L93.4425 81.432ZM92.8665 79.992L94.2762 79.4794L92.8665 75.6027L91.4568 79.4794L92.8665 79.992ZM92.2905 81.432L93.6729 82.0141L93.6729 82.0141L92.2905 81.432ZM91.4265 83.304L92.7601 83.9906L92.7641 83.9827L92.7681 83.9748L91.4265 83.304ZM86.4345 93L86.4345 94.5L87.3493 94.5L87.7681 93.6866L86.4345 93ZM81.2263 93.7128L90.9223 75.7608L88.2827 74.3352L78.5867 92.2871L81.2263 93.7128ZM90.9258 74.3417L81.8058 57.2537L79.1592 58.6663L88.2791 75.7543L90.9258 74.3417ZM80.4825 59.46L87.2025 59.46L87.2025 56.46L80.4825 56.46L80.4825 59.46ZM85.8623 58.6337L90.2783 67.4177L92.9586 66.0702L88.5426 57.2862L85.8623 58.6337ZM90.2768 67.4148C90.5835 68.0281 90.8577 68.6225 91.1 69.1981L93.8649 68.0339C93.5953 67.3935 93.2935 66.7399 92.9601 66.0732L90.2768 67.4148ZM91.1118 69.2252C91.3652 69.7955 91.5483 70.2233 91.6658 70.5171L94.4512 69.4029C94.3127 69.0566 94.1117 68.5884 93.8532 68.0068L91.1118 69.2252ZM94.4952 70.391C94.5635 70.1634 94.7086 69.7844 94.9572 69.2252L92.2158 68.0068C91.9523 68.5995 91.7455 69.1166 91.6217 69.529L94.4952 70.391ZM94.9689 69.1981C95.2113 68.6225 95.4855 68.0281 95.7921 67.4148L93.1088 66.0732C92.7755 66.7399 92.4737 67.3935 92.204 68.0339L94.9689 69.1981ZM95.7877 67.4236L100.252 58.6396L97.5772 57.2804L93.1132 66.0644L95.7877 67.4236ZM98.9145 59.46L105.442 59.46L105.442 56.46L98.9145 56.46L98.9145 59.46ZM104.122 57.2491L95.0016 74.1931L97.6433 75.6149L106.763 58.6709L104.122 57.2491ZM95.0003 75.6124L104.696 93.7084L107.341 92.2916L97.6446 74.1956L95.0003 75.6124ZM106.018 91.5L99.2985 91.5L99.2985 94.5L106.018 94.5L106.018 91.5ZM100.635 92.3186L95.6908 82.6226L93.0182 83.9854L97.9622 93.6814L100.635 92.3186ZM95.6961 82.6332C95.3806 82.0021 95.0812 81.3877 94.7981 80.7899L92.0869 82.0741C92.3797 82.6923 92.6884 83.3259 93.0128 83.9748L95.6961 82.6332ZM94.8249 80.8499C94.5725 80.2504 94.3916 79.7969 94.2762 79.4794L91.4568 80.5046C91.5973 80.8911 91.8004 81.3975 92.06 82.0141L94.8249 80.8499ZM91.4568 79.4794C91.3413 79.7969 91.1604 80.2504 90.908 80.8499L93.6729 82.0141C93.9325 81.3975 94.1356 80.8911 94.2762 80.5046L91.4568 79.4794ZM90.908 80.8499C90.6657 81.4255 90.3915 82.0199 90.0848 82.6332L92.7681 83.9748C93.1015 83.3081 93.4033 82.6545 93.6729 82.0141L90.908 80.8499ZM90.0928 82.6174L85.1008 92.3134L87.7681 93.6866L92.7601 83.9906L90.0928 82.6174ZM86.4345 91.5L79.9065 91.5L79.9065 94.5L86.4345 94.5L86.4345 91.5Z" fill="#1E1E1E"/>
<ellipse cx="93" cy="45.5556" rx="10" ry="11.1111" fill="#F93333"/>
<path d="M89.64 51.2222V40.2722H93.105C93.835 40.2722 94.465 40.4072 94.995 40.6772C95.535 40.9472 95.955 41.3272 96.255 41.8172C96.555 42.2972 96.705 42.8672 96.705 43.5272C96.705 44.2472 96.52 44.8822 96.15 45.4322C95.79 45.9822 95.3 46.3722 94.68 46.6022L96.855 51.2222H94.755L92.85 46.8722H91.515V51.2222H89.64ZM91.515 45.2222H93.105C93.635 45.2222 94.05 45.0772 94.35 44.7872C94.65 44.4972 94.8 44.0972 94.8 43.5872C94.8 43.0672 94.65 42.6622 94.35 42.3722C94.05 42.0722 93.635 41.9222 93.105 41.9222H91.515V45.2222Z" fill="white"/>
</svg>
