<svg width="42" height="56" viewBox="0 0 42 56" fill="none" xmlns="http://www.w3.org/2000/svg">
<path d="M30.5733 34.223C31.6637 33.4902 33.1769 32.8558 33.1769 32.8558C33.1769 32.8558 28.871 33.6214 24.5874 33.9714C19.3469 34.398 13.717 34.4855 10.8909 34.1136C4.204 33.2386 14.5626 30.8215 14.5626 30.8215C14.5626 30.8215 10.546 30.559 5.59478 32.8996C-0.246519 35.6777 20.059 36.9464 30.5733 34.223ZM21.0715 30.7121C18.9575 26.0418 11.8255 21.9403 21.0715 14.7654C32.605 5.81867 26.6902 0 26.6902 0C29.0824 9.24207 18.2788 12.042 14.3734 17.7841C11.7142 21.7107 15.6752 25.9215 21.0715 30.7121ZM33.8222 11.4405C33.8333 11.4405 14.3289 16.231 23.6416 26.7746C26.3898 29.8809 22.9184 32.6808 22.9184 32.6808C22.9184 32.6808 29.8946 29.1371 26.6902 24.7075C23.6973 20.5732 21.4052 18.5169 33.8222 11.4405ZM33.1435 41.026C33.0827 41.1302 33.0078 41.2259 32.9209 41.3104C47.196 37.6245 41.9444 28.3059 35.124 30.6683C34.7556 30.8014 34.4373 31.0418 34.2116 31.3574C34.6099 31.2157 35.0192 31.106 35.4355 31.0293C38.8846 30.3183 43.8358 35.5683 33.1435 41.026ZM38.3906 47.84C38.3906 47.84 40.0039 49.1415 36.6216 50.1587C30.1794 52.0728 9.82945 52.6524 4.17729 50.2353C2.14118 49.3712 5.9575 48.1572 7.15914 47.9056C8.40528 47.6431 9.12849 47.6869 9.12849 47.6869C6.86986 46.1228 -5.48033 50.7603 2.85326 52.0837C25.5776 55.7149 44.2876 50.454 38.3906 47.84ZM13.5167 43.3119C4.76031 45.7181 18.8462 50.6837 29.9947 45.9916C28.9074 45.5763 27.8578 45.0714 26.8571 44.4822C21.8837 45.4119 19.5805 45.4775 15.0633 44.9744C11.3359 44.5588 13.5167 43.3119 13.5167 43.3119ZM33.5218 53.943C24.7654 55.5618 13.9618 55.3758 7.56414 54.3368C7.56414 54.3258 8.87704 55.3977 15.6196 55.8243C25.878 56.4696 41.6328 55.4633 42 50.6946C42 50.6946 41.2879 52.4993 33.5218 53.943ZM28.6707 38.6089C22.0839 39.8557 18.2676 39.8229 13.4499 39.3307C9.72264 38.9479 12.1593 37.1761 12.1593 37.1761C2.50167 40.326 17.5222 43.8916 31.0184 40.0088C30.1461 39.7061 29.3468 39.2295 28.6707 38.6089Z" fill="black"/>
</svg>
