<svg width="58" height="56" viewBox="0 0 58 56" fill="none" xmlns="http://www.w3.org/2000/svg">
<path d="M0 0V56H58V0H0ZM31.5634 43.675C31.5634 49.125 28.2491 51.6125 23.4201 51.6125C19.0571 51.6125 16.5326 49.4375 15.2379 46.8L19.6786 44.2125C20.533 45.675 21.3098 46.9125 23.1871 46.9125C24.9737 46.9125 26.1129 46.2375 26.1129 43.6V25.7125H31.5634V43.675ZM44.458 51.6125C39.396 51.6125 36.1205 49.2875 34.5281 46.2375L38.9688 43.7625C40.1339 45.6 41.6616 46.9625 44.3415 46.9625C46.5942 46.9625 48.0442 45.875 48.0442 44.3625C48.0442 42.5625 46.5683 41.925 44.0696 40.8625L42.7103 40.3C38.7746 38.6875 36.1723 36.65 36.1723 32.3625C36.1723 28.4125 39.2924 25.4125 44.1473 25.4125C47.617 25.4125 50.1027 26.575 51.8893 29.625L47.6429 32.25C46.7107 30.6375 45.7009 30 44.1344 30C42.542 30 41.5321 30.975 41.5321 32.25C41.5321 33.825 42.542 34.4625 44.8853 35.45L46.2446 36.0125C50.8795 37.925 53.4817 39.8875 53.4817 44.2875C53.4817 49.0125 49.6237 51.6125 44.458 51.6125Z" fill="black"/>
</svg>
