<svg width="17" height="17" viewBox="0 0 17 17" fill="none" xmlns="http://www.w3.org/2000/svg">
<path d="M16.5004 10.7653V16.5001H13.9796V11.4749C13.9796 10.8384 13.9794 9.98598 13.7055 9.29433C13.5628 8.93409 13.3375 8.59221 12.9814 8.34385C12.6243 8.09475 12.1784 7.96951 11.6472 7.96951C11.1241 7.96951 10.6754 8.07185 10.3017 8.27874C9.92513 8.48722 9.65463 8.78541 9.4655 9.12835C9.10022 9.79072 9.03387 10.6309 9.03387 11.3801V16.5001H6.51313V6.15003H8.89347V7.19828V7.69828H9.39347H9.4428H9.74431L9.88501 7.43162C10.2732 6.69599 11.257 5.86543 12.7776 5.86543C14.4378 5.86543 15.3084 6.40122 15.8035 7.18766C16.332 8.02715 16.5004 9.25065 16.5004 10.7653ZM3.30535 16.5001H0.78081V6.15003H3.30535V16.5001ZM2.04118 3.60178C1.19641 3.60178 0.5 2.89829 0.5 2.04124C0.5 1.6325 0.662374 1.24049 0.951402 0.951463C1.24043 0.662435 1.63244 0.500061 2.04118 0.500061C2.44993 0.500061 2.84194 0.662435 3.13097 0.951463C3.41999 1.24049 3.58237 1.6325 3.58237 2.04124C3.58237 2.89823 2.88564 3.60178 2.04118 3.60178Z" fill="black" stroke="black"/>
</svg>
