<svg width="57" height="56" viewBox="0 0 57 56" fill="none" xmlns="http://www.w3.org/2000/svg">
<path d="M52.5246 21.9297C51.6674 18.55 50.042 16.0016 46.5797 16.0016H42.1154V21.186C42.1154 25.211 38.642 28.6016 34.6787 28.6016H22.7889C19.5381 28.6016 16.844 31.336 16.844 34.5406V45.675C16.844 48.8469 19.6494 50.7063 22.7889 51.6141C26.5518 52.6969 30.1699 52.8938 34.6787 51.6141C37.6735 50.7609 40.6236 49.0438 40.6236 45.675V41.2234H28.7449V39.736H46.5797C50.042 39.736 51.3223 37.3625 52.5246 33.8078C53.7715 30.1438 53.7158 26.6219 52.5246 21.9297ZM35.4246 44.1875C36.6604 44.1875 37.6623 45.1828 37.6623 46.4078C37.6623 47.6438 36.6604 48.6391 35.4246 48.6391C34.2 48.6391 33.1869 47.6328 33.1869 46.4078C33.1981 45.1719 34.2 44.1875 35.4246 44.1875ZM22.2434 27.136H34.1332C37.4397 27.136 40.0781 24.4563 40.0781 21.1969V10.0516C40.0781 6.87971 37.3617 4.50627 34.1332 3.97033C30.1477 3.32502 25.817 3.35783 22.2434 3.98127C17.2113 4.85627 16.2985 6.68283 16.2985 10.0625V14.5141H28.1994V16.0016H11.8342C8.3719 16.0016 5.34377 18.0469 4.39748 21.9297C3.30647 26.3813 3.26194 29.1594 4.39748 33.8078C5.24358 37.2641 7.25862 39.736 10.7209 39.736H14.8067V34.3985C14.8067 30.5375 18.2022 27.136 22.2434 27.136ZM21.4975 11.5391C20.2617 11.5391 19.2598 10.5438 19.2598 9.31877C19.2709 8.08283 20.2617 7.08752 21.4975 7.08752C22.7221 7.08752 23.7352 8.09377 23.7352 9.31877C23.7352 10.5438 22.7332 11.5391 21.4975 11.5391Z" fill="black"/>
</svg>
